<?xml version="1.0" encoding="UTF-8" standalone="no"?>
<!-- Created with Inkscape (http://www.inkscape.org/) -->

<svg
   width="80.000031mm"
   height="80.000008mm"
   viewBox="0 0 80.000031 80.000008"
   version="1.1"
   id="svg5"
   xml:space="preserve"
   inkscape:version="1.2.2 (b0a8486541, 2022-12-01)"
   sodipodi:docname="logos.svg"
   xmlns:inkscape="http://www.inkscape.org/namespaces/inkscape"
   xmlns:sodipodi="http://sodipodi.sourceforge.net/DTD/sodipodi-0.dtd"
   xmlns="http://www.w3.org/2000/svg"
   xmlns:svg="http://www.w3.org/2000/svg"><sodipodi:namedview
     id="namedview7"
     pagecolor="#ffffff"
     bordercolor="#000000"
     borderopacity="0.25"
     inkscape:showpageshadow="2"
     inkscape:pageopacity="0.0"
     inkscape:pagecheckerboard="0"
     inkscape:deskcolor="#d1d1d1"
     inkscape:document-units="mm"
     showgrid="false"
     inkscape:zoom="0.36976784"
     inkscape:cx="401.60334"
     inkscape:cy="553.04972"
     inkscape:window-width="1346"
     inkscape:window-height="716"
     inkscape:window-x="8"
     inkscape:window-y="40"
     inkscape:window-maximized="0"
     inkscape:current-layer="layer1" /><defs
     id="defs2" /><g
     inkscape:label="Capa 1"
     inkscape:groupmode="layer"
     id="layer1"
     transform="translate(-257.85923,-112.9115)"><path
       style="fill:#000000;stroke-width:0.289742"
       d="m 291.59347,192.32501 c -16.14668,-2.87092 -28.77001,-14.55958 -32.9053,-30.46893 l -0.82894,-3.18913 0.003,-5.50847 c 0.0238,-42.86359 57.09158,-55.882489 76.12036,-17.36539 13.86178,28.05829 -11.59415,62.00735 -42.38919,56.53192 z m 19.53491,-11.11673 c -0.18936,-5.6626 -1.0028,-37.87002 -1.0028,-39.7047 v -1.24656 h -2.72044 -2.72043 l -0.43535,1.9431 c -0.28731,1.28233 -0.34689,2.17605 -0.17521,2.62816 1.03777,2.73288 -1.95371,5.12713 -4.36356,3.49237 -1.79304,-1.21633 -1.72997,-4.1644 0.104,-4.86256 0.62619,-0.23835 1.3251,-1.65089 1.33285,-2.69371 7.3e-4,-0.11959 -2.86508,-0.21745 -6.3688,-0.21745 h -6.37042 v 1.35843 c 0,0.96821 0.16966,1.53927 0.59061,1.98788 2.19042,2.33448 -0.63366,6.03117 -3.54925,4.64593 -1.67339,-0.79505 -2.20624,-2.88825 -1.09525,-4.30238 0.38818,-0.49408 0.57913,-1.17614 0.57913,-2.06854 v -1.33139 h -2.60607 c -1.43335,0 -2.60608,0.10297 -2.60608,0.22873 0,0.12582 -1.05113,5.89886 -2.33584,12.82898 -4.12682,22.26141 -4.53709,24.68097 -4.203,24.78686 0.17226,0.0546 7.61023,1.49746 16.5288,3.20635 8.91858,1.70892 17.32318,3.33248 18.6769,3.60792 1.35371,0.27546 2.56058,0.51611 2.68194,0.53477 0.12135,0.0186 0.14757,-2.15131 0.0583,-4.82219 z m 12.20259,-3.47906 c -0.0845,-0.27905 -1.20346,-5.59545 -2.48662,-11.81425 -1.28317,-6.2188 -2.80663,-13.52479 -3.38548,-16.23554 -0.57884,-2.71077 -1.11245,-5.28902 -1.18583,-5.72947 -0.28172,-1.69139 -0.6978,-1.13807 -0.52245,0.69475 0.54606,5.70734 1.64537,18.33193 2.06674,23.73459 0.55261,7.0853 0.45375,6.81884 3.16691,8.53568 2.27355,1.43862 2.56653,1.54028 2.34673,0.81424 z M 271.0344,166.4948 c 0,-0.0798 -0.0651,-0.14495 -0.14478,-0.14495 -0.0797,0 -0.14478,0.0653 -0.14478,0.14495 0,0.0798 0.0651,0.14496 0.14478,0.14496 0.0797,0 0.14478,-0.0653 0.14478,-0.14496 z m 54.64923,-0.0302 c -0.0962,-0.0963 -0.34597,-0.10663 -0.555,-0.0229 -0.23099,0.0926 -0.16238,0.16125 0.17495,0.17517 0.30525,0.0126 0.47627,-0.0559 0.38005,-0.15228 z m -53.85292,-2.50662 c -0.0664,-0.19931 -0.46814,-0.35424 -0.89283,-0.34427 -0.42469,0.0103 -2.34351,0.0424 -4.26403,0.0725 -2.24117,0.0348 -3.42776,0.15819 -3.3129,0.34427 0.2819,0.45667 8.62216,0.3853 8.46976,-0.0726 z m 60.30176,0.0726 c 0,-0.17947 -1.54434,-0.28992 -4.0539,-0.28992 -2.50956,0 -4.05389,0.1104 -4.05389,0.28992 0,0.17948 1.54433,0.28991 4.05389,0.28991 2.50956,0 4.0539,-0.1104 4.0539,-0.28991 z m -59.93981,-1.59461 c 0,-0.36844 -0.70782,-0.43489 -4.63303,-0.43489 -3.92521,0 -4.63303,0.0665 -4.63303,0.43489 0,0.36843 0.70782,0.43488 4.63303,0.43488 3.92521,0 4.63303,-0.0665 4.63303,-0.43488 z m 60.51894,0 c 0,-0.36785 -0.69174,-0.43489 -4.48825,-0.43489 -3.79651,0 -4.48825,0.0671 -4.48825,0.43489 0,0.36785 0.69174,0.43488 4.48825,0.43488 3.79651,0 4.48825,-0.0671 4.48825,-0.43488 z m -60.30147,-1.23221 c 0.0931,-0.28047 -0.99784,-0.36241 -4.82637,-0.36241 -4.23892,0 -4.94672,0.0632 -4.94672,0.44191 0,0.59216 9.57588,0.51427 9.77309,-0.0795 z m 60.51896,0 c 0.093,-0.28018 -0.96892,-0.36241 -4.68161,-0.36241 -4.40129,0 -5.17044,0.11434 -4.60182,0.68359 0.3779,0.37834 9.15194,0.0749 9.28343,-0.32118 z m -60.30669,-1.01471 c 0.0671,-0.19932 0.18325,-0.75379 0.25812,-1.23216 0.18144,-1.15935 3.60753,-19.24123 3.80635,-20.08885 0.0857,-0.3653 0.28358,-0.58512 0.43975,-0.48847 0.15617,0.0967 1.98595,0.0831 4.06618,-0.0302 l 3.78224,-0.20587 -0.19308,-2.06285 c -0.88825,-9.49067 7.64458,-16.46391 15.27592,-12.48388 0.75356,0.39301 1.74261,0.71456 2.19788,0.71456 3.90845,0 8.13206,5.07206 8.39599,10.0826 0.10789,2.04899 0.1951,2.378 0.59642,2.25105 2.84084,-0.89867 3.49501,-0.67102 3.50649,1.22015 l 0.003,0.65232 h 2.1183 2.11832 l 1.94193,9.63985 c 1.06806,5.30192 2.0071,10.09648 2.08674,10.65458 0.2604,1.8248 -10e-4,1.73951 5.33515,1.73951 h 4.93168 l 0.0434,-0.72481 c 0.0239,-0.39862 0.0565,-0.88788 0.0725,-1.08718 0.0217,-0.27183 -1.23765,-0.40126 -5.03842,-0.51777 l -5.06739,-0.15538 5.106,-0.0621 5.106,-0.0621 0.1746,-0.65233 c 0.34813,-1.30066 0.21734,-1.66514 -0.6138,-1.71047 l -0.79629,-0.0434 0.79629,-0.12076 0.79631,-0.12078 v -3.13784 c 0,-23.77235 -24.63466,-41.40832 -47.34378,-33.89346 -14.53484,4.80978 -25.62027,20.29671 -24.98942,34.91147 l 0.0869,2.01332 1.01347,0.17928 1.01348,0.17926 -0.94109,0.0383 -0.94108,0.0382 v 1.15968 c 0,0.63783 0.13799,1.15969 0.30665,1.15969 0.16866,0 0.22749,0.12824 0.13074,0.28499 -0.0967,0.15673 -0.0899,0.74382 0.0151,1.30464 l 0.19105,1.01964 h 5.04423 c 3.77729,0 5.07489,-0.091 5.16624,-0.36239 z m -8.89949,-2.16924 c 0.67685,-0.061 1.78444,-0.061 2.46129,0 0.67685,0.061 0.12307,0.11097 -1.23064,0.11097 -1.35372,0 -1.90751,-0.0499 -1.23065,-0.11097 z m 4.20419,0.0114 c 0.28174,-0.0735 0.67265,-0.0687 0.86868,0.0103 0.19606,0.0794 -0.0345,0.13957 -0.51224,0.13366 -0.47778,-0.006 -0.63818,-0.0709 -0.35644,-0.14439 z m 2.04556,0.008 c 0.10618,-0.10629 0.27991,-0.10629 0.3861,0 0.10617,0.10628 0.0193,0.19329 -0.19306,0.19329 -0.21234,0 -0.29921,-0.087 -0.19304,-0.19328 z m 20.62473,-21.10122 c -0.54907,-3.66586 1.20857,-7.57368 4.53814,-10.08984 l 1.43867,-1.0872 -1.11494,0.007 c -4.18773,0.0239 -7.0878,3.68533 -7.2859,9.19861 l -0.11717,3.26162 h 1.36716 1.36718 l -0.19314,-1.28976 z m 10.97783,0.67434 c 1.19391,-1.13351 -0.0882,-8.36331 -1.65904,-9.3554 -2.56907,-1.62254 -7.19245,5.95831 -5.81914,9.54151 0.20742,0.54118 6.88722,0.37494 7.47818,-0.18611 z m 5.94427,-2.23235 c 0,-2.09364 -0.61549,-3.96081 -1.76654,-5.35894 -1.18362,-1.43769 -1.4513,-1.34849 -0.91878,0.30616 0.27151,0.84366 0.43907,2.41596 0.43256,4.05889 l -0.0103,2.68177 h 1.1317 1.1317 v -1.68788 z"
       id="path2149-3" /></g></svg>
